<svg version="1.1" id="Layer_1" xmlns="http://www.w3.org/2000/svg" xmlns:xlink="http://www.w3.org/1999/xlink" x="0px" y="0px" viewBox="0 0 500 500" style="width: 151px;" xml:space="preserve" data-imageid="click-here-67" imageName="Click Here" class="illustrations_image">
<style type="text/css">
	.st0_click-here-67{fill:#F9D8A3;}
	.st1_click-here-67{fill:#68E1FD;}
	.st2_click-here-67{fill:#EA7554;}
	.st3_click-here-67{opacity:0.15;enable-background:new    ;}
	.st4_click-here-67{fill:#FFFFFF;}
	.st5_click-here-67{fill:#FCEE21;}
	.st6_click-here-67{opacity:0.32;fill:url(#SVGID_1_);enable-background:new    ;}
	.st7_click-here-67{opacity:0.7;enable-background:new    ;}
	.st8_click-here-67{fill:#938F05;}
	.st9_click-here-67{opacity:0.32;fill:url(#SVGID_00000119108960607472321360000008900077171272013741_);enable-background:new    ;}
	.st10_click-here-67{fill:#FFAC99;}
	.st11_click-here-67{fill:#635E00;}
</style>
<g id="field_click-here-67">
	<path class="st0_click-here-67" d="M87,298l-69.9,40.3l180.6,105l285.1-164.8l-195.7-126"/>
</g>
<g id="screen_click-here-67">
	<path class="st1_click-here-67 targetColor" d="M80.4,181.6l215.5-124c3.2-1.8,7.2-0.7,9,2.4c0.5,0.8,0.8,1.8,0.9,2.8l13.8,171.9c0.2,2.6-1.1,5-3.3,6.3&#10;&#9;&#9;L105.4,360.4c-3.2,1.8-7.2,0.7-9-2.5c-0.4-0.8-0.7-1.6-0.8-2.5L77.2,188C76.9,185.4,78.2,182.9,80.4,181.6z" style="fill: rgb(104, 225, 253);"/>
	<path class="st2_click-here-67" d="M249.7,170.6l-92.2,52.4c-4.7,2.7-7.5,7.8-7.1,13.2l0,0c0.5,7.7,7.2,13.6,14.9,13c2.1-0.1,4.2-0.8,6-1.8&#10;&#9;&#9;l92.3-51.8c4.8-2.7,7.5-7.8,7.1-13.3l0-0.6c-0.5-7.7-7.2-13.5-14.9-13C253.6,168.9,251.6,169.5,249.7,170.6z"/>
	<path class="st3_click-here-67" d="M249.7,170.6l-92.2,52.4c-4.7,2.7-7.5,7.8-7.1,13.2l0,0c0.5,7.7,7.2,13.6,14.9,13c2.1-0.1,4.2-0.8,6-1.8&#10;&#9;&#9;l92.3-51.8c4.8-2.7,7.5-7.8,7.1-13.3l0-0.6c-0.5-7.7-7.2-13.5-14.9-13C253.6,168.9,251.6,169.5,249.7,170.6z"/>
	<path class="st2_click-here-67" d="M255,173.2l-92.2,52.4c-4.7,2.7-7.5,7.8-7.1,13.2l0,0c0.5,7.7,7.2,13.5,14.9,13c2.1-0.1,4.1-0.8,5.9-1.8&#10;&#9;&#9;l92.3-51.8c4.8-2.7,7.5-7.9,7.1-13.3l0-0.6c-0.6-7.7-7.3-13.5-15.1-13C258.8,171.5,256.8,172.1,255,173.2z"/>
	<path class="st4_click-here-67" d="M142.6,178.2c3.7-2.1,6.6-1.2,7.9,2.6l-2.8,2.6c-1.1-2.1-2.6-2.6-4.7-1.4c-1.5,0.9-2.7,2.3-3.3,4&#10;&#9;&#9;c-0.8,2-1,4.2-0.7,6.4c0.3,2.4,1,4,2,4.8c1.2,0.7,2.6,0.7,3.8-0.1c2.1-1.2,3.4-3.3,3.8-6.3l3-0.7c-0.2,4.5-2.6,8.5-6.4,10.8&#10;&#9;&#9;c-2.3,1.3-4.3,1.4-6.1,0.3s-2.9-3.4-3.3-7c-0.5-3.3,0-6.7,1.4-9.7C138.2,181.9,140.1,179.7,142.6,178.2z"/>
	<polygon class="st4_click-here-67" points="155.5,170.8 158,193.2 155,195 152.4,172.5 &#9;"/>
	<path class="st4_click-here-67" d="M160.8,172.5c-0.5,0.3-1,0.3-1.5,0c-0.9-0.5-1.1-2.2-0.4-3.6c0.3-0.6,0.7-1.2,1.3-1.5c0.4-0.3,1-0.3,1.5-0.1&#10;&#9;&#9;c0.9,0.6,1.1,2.2,0.4,3.6C161.8,171.5,161.4,172.1,160.8,172.5z"/>
	<polygon class="st4_click-here-67" points="161.3,191.4 159.5,175.4 162.5,173.6 164.3,189.6 &#9;"/>
	<polygon class="st4_click-here-67" points="181.8,155.7 183.2,168.5 186.6,159.9 190.4,157.7 186.2,167.9 192.5,173.5 188.7,175.6 183.5,170.6 &#10;&#9;&#9;184.4,178.1 181.3,179.9 178.8,157.4 &#9;"/>
	<path class="st4_click-here-67" d="M171.5,168.2c2.8-1.6,4.9-1.2,6.2,1.3l-2.6,3c-0.9-1.4-2-1.7-3.2-1c-1.9,1.1-2.6,3.6-2.3,6.5s1.5,4.4,3.4,3.3&#10;&#9;&#9;c1.3-0.7,2.2-2.2,2.6-4.3l2.9-0.1c-0.4,3.3-2.3,6.2-5.1,7.8c-1.9,1.1-3.5,1.2-4.7,0.2s-2-2.6-2.2-5c-0.3-2.3,0-4.6,0.9-6.8&#10;&#9;&#9;C168.1,171,169.6,169.3,171.5,168.2z"/>
	<polygon class="st4_click-here-67" points="211.7,138.8 214.2,161 211,162.9 209.9,152.9 203,156.9 204.1,166.8 200.9,168.7 198.4,146.4 &#10;&#9;&#9;201.6,144.6 202.6,153.1 209.5,149.1 208.5,140.6 &#9;"/>
	<path class="st4_click-here-67" d="M228,144.2l0.2,1.6l-8.6,4.9c0.3,1.9,1.6,3,3.4,1.9c1.4-1,2.4-2.5,2.7-4.2l2.6-0.3c-0.7,3.7-2.4,6.4-5.1,7.9&#10;&#9;&#9;c-4.2,2.4-6.5-1-6.9-4.9s0.8-9.2,5-11.7c2-1.1,3.7-1,4.8,0.1C227.2,141,227.9,142.6,228,144.2z M219.4,147.6l5.4-3.1&#10;&#9;&#9;c-0.6-1.8-1.6-2.4-3-1.5C220.2,144.1,219.3,145.8,219.4,147.6"/>
	<path class="st4_click-here-67" d="M252.1,130.4l0.2,1.6l-8.6,5c0.3,1.9,1.6,2.9,3.4,1.9c1.4-1,2.4-2.5,2.7-4.2l2.6-0.3c-0.7,3.7-2.4,6.4-5.1,7.9&#10;&#9;&#9;c-4.3,2.4-6.5-1-6.9-4.8s0.8-9.2,5-11.7c2-1.1,3.7-1,4.8,0.1C251.3,127.2,252,128.8,252.1,130.4z M243.5,133.8l5.4-3.1&#10;&#9;&#9;c-0.6-1.8-1.6-2.3-3-1.5C244.3,130.2,243.4,132,243.5,133.8"/>
	<path class="st4_click-here-67" d="M236.6,130.9c0.5-0.3,1-0.5,1.5-0.6l-0.1,4c-0.5-0.1-0.9,0-1.3,0.3c-1.9,1.1-3.1,4.1-2.5,8.9l0.6,5.7l-3.1,1.8&#10;&#9;&#9;l-1.8-16l3.1-1.8l0.3,2.6C233.7,133.8,234.9,132.1,236.6,130.9z"/>
	<ellipse class="st2_click-here-67" cx="94.7" cy="186.3" rx="3.3" ry="4.7"/>
	<ellipse class="st5_click-here-67" cx="103.9" cy="181.6" rx="3.3" ry="4.7"/>
	<ellipse class="st0_click-here-67" cx="113.2" cy="176.7" rx="3.3" ry="4.7"/>
	<path class="st4_click-here-67" d="M140.4,230.5l-3.6-1.1c-1.3-0.4-2.7,0.4-3.1,1.8c-0.3,1.3,0.4,2.7,1.8,3.1l3.6,1.1c1.3,0.4,2.7-0.4,3.1-1.8&#10;&#9;&#9;S141.8,230.9,140.4,230.5L140.4,230.5z"/>
	<path class="st4_click-here-67" d="M138.6,241.4l-8,2.3c-3.1,0.9-1.8,5.8,1.3,4.9l8-2.3C143.1,245.4,141.7,240.5,138.6,241.4z"/>
	<path class="st4_click-here-67" d="M140.5,251.1l-3.3,5.3c-1.7,2.8,2.6,5.3,4.4,2.5l3.3-5.2C146.6,250.9,142.3,248.4,140.5,251.1z"/>
</g>
<g id="plant_click-here-67">
	
		<linearGradient id="SVGID_1_-click-here-67" gradientUnits="userSpaceOnUse" x1="336.5496" y1="169.1305" x2="388.1896" y2="212.3405" gradientTransform="matrix(1 0 0 -1 0 502)">
		<stop offset="0" style="stop-color:#F9D8A3;stop-opacity:0"/>
		<stop offset="0.99" style="stop-color:#DC841E"/>
	</linearGradient>
	<polyline class="st6_click-here-67" points="424.2,287.6 336,337.7 312.7,324.7 399.4,276.4 &#9;"/>
	<path class="st1_click-here-67 targetColor" d="M399.3,256.3c0,0-5,34.1,16.5,34.3c20.6,0.1,15.3-34.7,15.3-34.7S416.1,242.8,399.3,256.3z" style="fill: rgb(104, 225, 253);"/>
	<path class="st3_click-here-67" d="M399.3,256.3c0,0-5,34.1,16.5,34.3c20.6,0.1,15.3-34.7,15.3-34.7S416.1,242.8,399.3,256.3z"/>
	<ellipse class="st1_click-here-67 targetColor" cx="415.1" cy="256.3" rx="15.9" ry="6.6" style="fill: rgb(104, 225, 253);"/>
	<ellipse class="st7_click-here-67" cx="415.1" cy="256.3" rx="15.9" ry="6.6"/>
	<path class="st8_click-here-67" d="M390.1,206.4c0,0-11.1-2.7-6.8-11.9C383.3,194.6,390.9,196.1,390.1,206.4z"/>
	<path class="st8_click-here-67" d="M396.9,215.7c0,0-1.5-7.9,4.6-11C401.5,204.7,406.4,212.9,396.9,215.7z"/>
	<path class="st8_click-here-67" d="M403.8,227.8c0,0-1.8-9.4,5.5-13.2C409.3,214.6,415.2,224.4,403.8,227.8z"/>
	<path class="st8_click-here-67" d="M409.1,241c0,0-1.8-9.4,5.5-13.2C414.6,227.7,420.6,237.6,409.1,241z"/>
	<path class="st8_click-here-67" d="M396.2,215.9c0,0-3.9-7-10.6-5.5C385.5,210.5,387.1,220,396.2,215.9z"/>
	<path class="st8_click-here-67" d="M403.2,228.1c0,0-5-8.2-13-6C390.2,222.1,392.5,233.3,403.2,228.1z"/>
	<path class="st8_click-here-67" d="M408.5,241.1c0,0-5.9-7.6-13.6-4.6C394.9,236.5,398.5,247.4,408.5,241.1z"/>
	<path d="M412.6,262.9h0.1c0.5,0,1,0,1.5,0.1c0,0,0-0.1,0-0.2c-2.4-21.1-10.7-41-23.9-57.6c-0.7-0.9-1.9,0.4-1.2,1.2&#10;&#9;&#9;C402.1,222.7,410.2,242.3,412.6,262.9L412.6,262.9z"/>
	<path class="st8_click-here-67" d="M438.9,221.5c0,0,9.5-2.3,5.9-10.2C444.7,211.3,438.2,212.6,438.9,221.5z"/>
	<path class="st8_click-here-67" d="M433.1,229.4c0,0,1.3-6.8-4-9.5C429.1,220,424.9,227,433.1,229.4z"/>
	<path class="st8_click-here-67" d="M427.2,239.8c0,0,1.6-8.1-4.7-11.3C422.4,228.5,417.4,236.9,427.2,239.8z"/>
	<path class="st8_click-here-67" d="M422.6,251.1c0,0,1.6-8.1-4.7-11.3C417.8,239.7,412.8,248.2,422.6,251.1z"/>
	<path class="st8_click-here-67" d="M433.6,229.6c0,0,3.4-6,9.1-4.7C442.8,224.9,441.5,233.1,433.6,229.6z"/>
	<path class="st8_click-here-67" d="M427.6,240.1c0,0,4.3-7,11.1-5.2C438.8,234.9,436.8,244.5,427.6,240.1z"/>
	<path class="st8_click-here-67" d="M423.1,251.2c0,0,5-6.5,11.6-3.9C434.7,247.3,431.7,256.7,423.1,251.2z"/>
	<path d="M438.5,220.5c-9.8,12.3-16.4,26.9-19.4,42.3c0.5-0.1,1-0.2,1.5-0.2c2.9-15,9.4-29.1,18.9-41.1&#10;&#9;&#9;C440.2,220.8,439.1,219.7,438.5,220.5z"/>
</g>
<g id="person_click-here-67">
	
		<linearGradient id="SVGID_00000049212045498283781950000012996251617608267404_-click-here-67" gradientUnits="userSpaceOnUse" x1="216.8274" y1="109.6232" x2="264.1974" y2="149.2431" gradientTransform="matrix(1 0 0 -1 0 502)">
		<stop offset="0" style="stop-color:#F9D8A3;stop-opacity:0"/>
		<stop offset="0.99" style="stop-color:#DC841E"/>
	</linearGradient>
	
		<polyline style="opacity:0.32;fill:url(#SVGID_00000049212045498283781950000012996251617608267404_);enable-background:new    ;" points="&#10;&#9;&#9;297.3,350.9 216.4,396.8 195,384.9 274.5,340.6 &#9;"/>
	<path class="st10_click-here-67" d="M278.6,188.3c0,0,0.7-5.1,0-7s-1.2-7.4-1.2-7.4c-1-0.2-2,0.3-2.4,1.3c-0.7,1.7,0.8,5.9,0.8,5.9&#10;&#9;&#9;s-4.2,8.7,0,12.7S278.6,188.3,278.6,188.3z"/>
	<path class="st5_click-here-67" d="M306.5,215.5l-27.9-27.2c0,0-6.3,13.7,0,20l25.6,25.5"/>
	<path class="st3_click-here-67" d="M306.5,215.5l-27.9-27.2c0,0-6.3,13.7,0,20l25.6,25.5"/>
	<path class="st2_click-here-67" d="M311.7,328.1c0,0,3.9,5.3,3.5,8.5s-5.2,8.4-6.3,10.6s-1.4,3.2,0,4.8s13.4-8.8,13.7-10.5s-1.7-8.1-1.7-8.1&#10;&#9;&#9;l5.3,6.7l3.9-2.3l-8.2-13.9"/>
	<path d="M310.2,352.2c0.3-0.3,9.8-3.6,9.8-3.6s4.5-4.6,4.3-6.4s-1.8-8.8-3.4-8.7s-1.9,9.4-1.9,9.4L310.2,352.2z"/>
	<path class="st2_click-here-67" d="M298.9,337l-1.2,14.2c0,0-3.1,2.2-3.8,2s-3-0.8-3-1.1s1.1-10.1,0.8-10.3s-5,7.4-6.5,7.6s-12.8-6.4-11.7-8.9&#10;&#9;&#9;s6.5-1.2,9.2-1.2s6.4-1.6,8.4-6.2"/>
	<path class="st8_click-here-67" d="M291.7,298.4l-6.9,36.5c0,0,4,5.2,18.2,4.5l10.6-25.9"/>
	<path class="st8_click-here-67" d="M288.7,241.2c0,0-10.6,15.5-7.4,40.6c2.9,22.2,25.1,48.4,25.1,48.4s6.6,2.9,20.5-10.1l-15.3-24.3&#10;&#9;&#9;c0,0,14.9-34.4-2.7-56.3"/>
	<path class="st10_click-here-67" d="M258.7,211.4c0-2-3.1-2-3.1,0c0,1,0,2.1,0,3.1c-0.1-0.2-0.2-0.4-0.4-0.7c-1.2-2.9-2.1-5.9-2.7-9&#10;&#9;&#9;c-0.4-2-3.2-1.1-3,0.8c0.2,1.5,0.5,3,0.9,4.4l-0.3-0.1c-1-0.4-2.2,0.2-2.5,1.2c0,0.1,0,0.1-0.1,0.2c-0.2,0.5-0.2,1-0.1,1.5h-0.2&#10;&#9;&#9;c-1.2,0.4-1.8,1.6-1.5,2.8c0.1,0.2,0.2,0.5,0.3,0.7c-0.4,0.3-0.7,0.7-0.8,1.2c-0.1,1.1,0.4,2.2,1.3,2.8c1.1,0.9,2.2,2,3.2,3&#10;&#9;&#9;c1.3,1.2,2.7,2.5,3.9,3.5s3.2-2.3,3.2-3.4c0.8,0.2,1.6-0.2,1.8-0.9c0.1-0.2,0.1-0.3,0.1-0.5C258.7,218.6,258.6,215,258.7,211.4z"/>
	<path d="M252.5,214.7c-0.7-1.5-1.4-3.1-2-4.6c-0.1-0.3-0.7-0.2-0.5,0.1c0.6,1.6,1.3,3.2,2.1,4.8&#10;&#9;&#9;C252.2,215.4,252.7,215.1,252.5,214.7z"/>
	<path class="st5_click-here-67" d="M290.3,207c0,0-5.2,4.7-7.2,7.9s-10,12.1-13.3,9.4s-9.2-7.8-9.2-7.8s-8.4,5.8-7.5,11.7c0,0,7.4,15.2,19,11.8&#10;&#9;&#9;s14.5-7.7,14.5-7.7l1.8,9.9c0,0,14.4,4.5,21-2.2c0,0,4.4-28.4,1.1-32.6"/>
	<path class="st10_click-here-67" d="M288.7,189.8c-0.1,0.3-0.4,10.6,3.1,11.6s9.4-1.5,11-4.7s-0.7-13.6-6.2-14.2S289.7,186.8,288.7,189.8z"/>
	<path d="M292.9,191.7c2.3,1.6,0.9,4.5-0.1,6.4c-0.7,1.5-1.1,3.1-1,4.7c0,1.5-0.5,3-1.5,4.1c-0.8,1-1.5,2-2,3.1&#10;&#9;&#9;c5,1.1,10.3,0.8,15.5,0.2c4.2-0.3,8.4-0.9,12.6-1.7c0-0.9-0.2-1.8-0.6-2.6c-1-2.3-2.6-3.5-2.2-6.2c0.3-2.1,0.8-4.1,0.1-6.1&#10;&#9;&#9;s-2.5-3.1-4.2-4.3c-0.5-0.4-1-0.8-1.4-1.2l-0.4-0.6c-1-1.7-1.8-3.8-3.1-5.3c-1.4-1.4-3.1-2.2-5-2.6c-4-0.7-8.1,0.2-11.4,2.6&#10;&#9;&#9;c0,0-3,2.9-2.1,6S290.9,190.3,292.9,191.7z"/>
	<path class="st11_click-here-67" d="M290.3,305.9c0,0,12.2,21,16.1,24.2l-3.4,9.3C303,339.5,288.9,319.6,290.3,305.9z"/>
	<path class="st11_click-here-67" d="M311.4,294.7c-3.9-8.2-6.1-17.1-6.4-26.2c0-0.7-1.1-0.7-1.1,0c0.3,9.3,2.5,18.4,6.5,26.7&#10;&#9;&#9;C310.7,295.9,311.7,295.3,311.4,294.7z"/>
</g>
<g id="click_click-here-67">
	<polygon class="st11_click-here-67" points="141.5,277.9 165.4,261.7 170.9,290.6 159.7,286.1 146.8,313.2 138.4,310.2 151.3,282.5 &#9;"/>
	<polyline class="st11_click-here-67" points="165.4,261.7 169.6,263.6 168.1,267 163.6,266.2 &#9;"/>
	<polygon class="st8_click-here-67" points="145.7,279.9 169.6,263.6 175.1,292.6 163.9,288 151,315.2 142.6,312.1 155.5,284.4 &#9;"/>
</g>
</svg>